HIERARCHY
ROOT Hips
{
 OFFSET 0.000000 0.000000 0.000000
 CHANNELS 6 Xposition Yposition Zposition Yrotation Xrotation Zrotation
 JOINT Chest
 {
  OFFSET 0.000000 9.588913 -0.003946
  CHANNELS 3 Yrotation Xrotation Zrotation
  JOINT Chest2
  {
   OFFSET 0.000000 9.541882 0.008053
   CHANNELS 3 Yrotation Xrotation Zrotation
   JOINT Chest3
   {
    OFFSET 0.000000 9.501360 0.000000
    CHANNELS 3 Yrotation Xrotation Zrotation
    JOINT Chest4
    {
     OFFSET 0.000000 9.491660 0.000000
     CHANNELS 3 Yrotation Xrotation Zrotation
     JOINT Neck
     {
      OFFSET 0.000000 14.331917 0.000000
      CHANNELS 3 Yrotation Xrotation Zrotation
      JOINT Head
      {
       OFFSET 0.000000 8.884799 0.017034
       CHANNELS 3 Yrotation Xrotation Zrotation
       End Site
       {
        OFFSET 0.000000 16.896195 0.008993
       }
      }
     }
     JOINT RightCollar
     {
      OFFSET -2.923010 9.499495 0.000000
      CHANNELS 3 Yrotation Xrotation Zrotation
      JOINT RightShoulder
      {
       OFFSET -13.795216 0.000000 0.000000
       CHANNELS 3 Yrotation Xrotation Zrotation
       JOINT RightElbow
       {
        OFFSET -30.272209 0.000000 0.000000
        CHANNELS 3 Yrotation Xrotation Zrotation
        JOINT RightWrist
        {
         OFFSET -24.478199 0.000000 0.000000
         CHANNELS 3 Yrotation Xrotation Zrotation
         End Site
         {
          OFFSET -18.090752 0.000000 0.000000
         }
        }
       }
      }
     }
     JOINT LeftCollar
     {
      OFFSET 2.923010 9.499495 0.000000
      CHANNELS 3 Yrotation Xrotation Zrotation
      JOINT LeftShoulder
      {
       OFFSET 13.795216 0.000000 0.000000
       CHANNELS 3 Yrotation Xrotation Zrotation
       JOINT LeftElbow
       {
        OFFSET 30.272209 0.000000 0.000000
        CHANNELS 3 Yrotation Xrotation Zrotation
        JOINT LeftWrist
        {
         OFFSET 24.478199 0.000000 0.000000
         CHANNELS 3 Yrotation Xrotation Zrotation
         End Site
         {
          OFFSET 18.090752 0.000000 0.000000
         }
        }
       }
      }
     }
    }
   }
  }
 }
 JOINT RightHip
 {
  OFFSET -7.826875 0.019532 0.001973
  CHANNELS 3 Yrotation Xrotation Zrotation
  JOINT RightKnee
  {
   OFFSET 0.000000 -40.546152 -0.001885
   CHANNELS 3 Yrotation Xrotation Zrotation
   JOINT RightAnkle
   {
    OFFSET 0.000000 -39.417092 -0.003189
    CHANNELS 3 Yrotation Xrotation Zrotation
    JOINT RightToe
    {
     OFFSET 0.000000 -7.579396 17.243563
     CHANNELS 3 Yrotation Xrotation Zrotation
     End Site
     {
      OFFSET 0.000000 -1.500329 6.694466
     }
    }
   }
  }
 }
 JOINT LeftHip
 {
  OFFSET 7.826875 0.019532 0.001973
  CHANNELS 3 Yrotation Xrotation Zrotation
  JOINT LeftKnee
  {
   OFFSET 0.000000 -40.546152 -0.001885
   CHANNELS 3 Yrotation Xrotation Zrotation
   JOINT LeftAnkle
   {
    OFFSET 0.000000 -39.417092 -0.003189
    CHANNELS 3 Yrotation Xrotation Zrotation
    JOINT LeftToe
    {
     OFFSET 0.000000 -7.579396 17.243563
     CHANNELS 3 Yrotation Xrotation Zrotation
     End Site
     {
      OFFSET 0.000000 -1.500329 6.694466
     }
    }
   }
  }
 }
}
MOTION
Frames: 11
Frame Time: 0.008333
22.489009 88.970911 6.678595 44.616904 -2.859023 5.722170 2.019675 5.679744 2.539740 1.095382 3.243471 1.395719 1.382125 4.050046 1.755039 1.095382 3.243472 1.395719 -17.830133 23.105403 1.045332 -21.140453 1.013208 5.367952 10.202466 -0.184289 -1.207315 -15.593451 -34.730078 72.906252 49.793574 -7.895422 -2.151978 15.717350 -4.382063 -19.863408 -3.127577 1.912705 -4.301399 18.184918 5.366685 -83.667165 -5.538164 -0.441226 -5.806295 -2.181768 4.853050 1.449738 -5.612431 -5.868817 -4.575691 6.580017 12.187874 2.917467 0.422869 -4.177735 -0.042457 0.029655 0.247849 0.128794 -3.147695 9.484343 3.623739 -9.918611 22.001135 0.493390 -8.568891 -7.636279 -9.916242 -0.570445 -17.946651 5.180028
22.521377 89.017620 6.626093 44.431643 -2.864738 5.714914 1.999793 5.677591 2.499166 1.085338 3.240023 1.394189 1.369537 4.045780 1.753025 1.085338 3.240024 1.394189 -17.825194 23.117977 1.066243 -21.140023 1.030008 5.390960 10.178297 -0.175195 -1.185631 -15.542460 -34.562684 72.927565 50.036885 -7.810527 -1.978701 15.695968 -4.399390 -19.818958 -3.147676 1.886976 -4.316958 18.179849 5.293622 -83.639203 -5.655542 -0.522562 -5.841807 -2.189199 4.845290 1.457687 -5.447164 -5.877400 -4.598509 6.624563 12.176044 2.936657 0.393813 -4.064957 -0.067958 0.035502 0.162196 0.149248 -3.174467 9.428067 3.541465 -9.895523 21.766222 0.488041 -8.438530 -7.905965 -9.856974 -0.463366 -16.634072 5.091127
22.552300 89.061713 6.567549 44.261851 -2.872351 5.702903 1.977311 5.672821 2.465332 1.073946 3.236940 1.392012 1.355259 4.041978 1.750192 1.073945 3.236942 1.392012 -17.824008 23.129221 1.089017 -21.145076 1.046066 5.417100 10.148513 -0.166779 -1.162530 -15.498926 -34.395281 72.947751 50.276902 -7.734386 -1.798700 15.676288 -4.418598 -19.776271 -3.175898 1.858550 -4.330202 18.168232 5.222391 -83.612247 -5.774079 -0.595685 -5.872625 -2.193298 4.837559 1.466443 -5.284653 -5.887955 -4.619069 6.657263 12.167146 2.952599 0.365534 -3.955952 -0.094012 0.039414 0.082602 0.169692 -3.192053 9.361979 3.468254 -9.859822 21.516248 0.488000 -8.280401 -8.141014 -9.764057 -0.363943 -15.411732 4.946410
22.582420 89.102562 6.503780 44.100737 -2.883862 5.684511 1.948779 5.665857 2.439072 1.060736 3.233598 1.389584 1.338706 4.037859 1.747029 1.060736 3.233600 1.389585 -17.823021 23.141140 1.110062 -21.149895 1.062850 5.441241 10.125647 -0.151933 -1.140846 -15.468930 -34.225714 72.969994 50.517138 -7.667126 -1.614524 15.661463 -4.436639 -19.725031 -3.202402 1.831365 -4.345076 18.153452 5.153208 -83.583591 -5.891701 -0.666363 -5.902174 -2.196167 4.834352 1.469515 -5.126811 -5.896533 -4.636933 6.685528 12.158657 2.967669 0.340937 -3.852623 -0.119095 0.040928 0.011250 0.188103 -3.183533 9.291657 3.410609 -9.816295 21.250741 0.491066 -8.106731 -8.345668 -9.635737 -0.275410 -14.282317 4.750355
22.611407 89.139618 6.436133 43.950124 -2.899514 5.651184 1.910720 5.656066 2.428562 1.045442 3.230498 1.387708 1.319552 4.034049 1.744538 1.045442 3.230500 1.387708 -17.821128 23.153927 1.127879 -21.152597 1.080242 5.461350 10.110404 -0.133646 -1.124285 -15.447742 -34.048303 72.992056 50.762085 -7.605974 -1.426910 15.651711 -4.451777 -19.671100 -3.223730 1.803894 -4.365144 18.135760 5.083730 -83.554768 -6.006888 -0.739200 -5.930331 -2.195189 4.837574 1.467267 -4.982403 -5.900729 -4.641337 6.715836 12.148816 2.978153 0.327319 -3.772054 -0.134270 0.031707 -0.035653 0.197983 -3.143807 9.227010 3.379714 -9.768876 20.952428 0.495499 -7.918075 -8.486050 -9.480133 -0.203286 -13.272630 4.511512
22.644765 89.173241 6.362845 43.798961 -2.929053 5.633149 1.874137 5.656310 2.403772 1.029162 3.229129 1.386637 1.299179 4.032403 1.743051 1.029162 3.229130 1.386638 -17.819721 23.165393 1.145376 -21.155844 1.096049 5.481239 10.089961 -0.121623 -1.108970 -15.410925 -33.860102 73.003616 51.013157 -7.550985 -1.244814 15.644445 -4.461753 -19.626057 -3.251442 1.769530 -4.389288 18.128820 5.015493 -83.530089 -6.124596 -0.804052 -5.954862 -2.187805 4.838034 1.464487 -4.842114 -5.890353 -4.664879 6.744712 12.134923 2.981366 0.305821 -3.673034 -0.140811 0.036293 -0.099846 0.207239 -3.071648 9.155083 3.338020 -9.720659 20.680283 0.502243 -7.726600 -8.654925 -9.305927 -0.135967 -12.329455 4.249123
22.678841 89.202829 6.286489 43.657222 -2.964868 5.601913 1.832738 5.657249 2.390771 1.012433 3.229227 1.386297 1.278258 4.032592 1.742480 1.012433 3.229229 1.386298 -17.819138 23.175599 1.163121 -21.160247 1.110469 5.501655 10.063673 -0.113101 -1.090826 -15.352048 -33.665123 73.001439 51.268432 -7.498261 -1.074518 15.635758 -4.468334 -19.586554 -3.288409 1.728788 -4.415788 18.134307 4.950891 -83.510891 -6.248680 -0.860337 -5.975846 -2.176355 4.833984 1.460839 -4.723288 -5.874360 -4.678873 6.767190 12.122222 2.982351 0.308797 -3.599073 -0.134036 0.031668 -0.140560 0.205294 -2.974064 9.092561 3.320730 -9.683247 20.381125 0.506875 -7.538699 -8.753788 -9.119631 -0.085403 -11.525545 3.971266
22.715240 89.228555 6.206861 43.520175 -3.008827 5.564160 1.792185 5.661321 2.380456 0.996715 3.229779 1.387266 1.258613 4.033339 1.743554 0.996715 3.229780 1.387266 -17.821819 23.185936 1.180068 -21.168723 1.125632 5.521923 10.031202 -0.099877 -1.067530 -15.286388 -33.469429 72.988949 51.526795 -7.440105 -0.910876 15.624581 -4.476196 -19.547882 -3.328837 1.687208 -4.443369 18.124173 4.884267 -83.491523 -6.372866 -0.926371 -5.998635 -2.160878 4.830509 1.454601 -4.625768 -5.854359 -4.690780 6.784851 12.116369 2.984325 0.330116 -3.535782 -0.120596 0.028430 -0.174721 0.198480 -2.854289 9.034075 3.315125 -9.665122 20.082294 0.509694 -7.354313 -8.817363 -8.928110 -0.046736 -10.849941 3.690628
22.754152 89.250513 6.124301 43.383991 -3.060462 5.518369 1.756818 5.667155 2.372758 0.983650 3.230788 1.389959 1.242303 4.034643 1.746810 0.983650 3.230789 1.389959 -17.829337 23.198097 1.196230 -21.183360 1.143977 5.542387 9.990504 -0.078834 -1.037583 -15.223166 -33.277841 72.969906 51.783503 -7.372859 -0.752265 15.613012 -4.482799 -19.507202 -3.371044 1.647194 -4.468083 18.087918 4.812951 -83.468096 -6.492323 -1.004726 -6.029443 -2.143879 4.828137 1.446759 -4.540566 -5.831402 -4.696513 6.802408 12.119162 2.985520 0.358133 -3.481535 -0.100884 0.028475 -0.204122 0.189409 -2.721174 8.978742 3.316983 -9.664134 19.797612 0.513867 -7.181871 -8.850956 -8.731143 -0.017743 -10.314875 3.412545
22.799611 89.269298 6.038201 43.252644 -3.132892 5.483708 1.712869 5.686059 2.349550 0.970922 3.232487 1.394407 1.226434 4.036804 1.752266 0.970923 3.232488 1.394408 -17.836804 23.213349 1.209527 -21.197116 1.165919 5.559386 9.958209 -0.047962 -1.005252 -15.169102 -33.091368 72.946165 52.035736 -7.298764 -0.597203 15.596479 -4.484533 -19.460747 -3.403856 1.610511 -4.490467 18.043093 4.738287 -83.445013 -6.610050 -1.076441 -6.066479 -2.131004 4.824302 1.436898 -4.456324 -5.794285 -4.716771 6.821535 12.130040 2.985584 0.368834 -3.402101 -0.075852 0.039979 -0.261891 0.182828 -2.596346 8.938812 3.298677 -9.676557 19.540291 0.520277 -7.027462 -8.861572 -8.530271 0.005888 -9.924274 3.146243
22.845624 89.284443 5.948951 43.109506 -3.200641 5.433085 1.678787 5.693160 2.339771 0.957945 3.234584 1.400559 1.210269 4.039459 1.759850 0.957945 3.234585 1.400559 -17.842541 23.231590 1.219055 -21.207518 1.190916 5.571457 9.937098 -0.009023 -0.975130 -15.124651 -32.906330 72.918126 52.286264 -7.223344 -0.442572 15.568525 -4.484172 -19.409072 -3.425086 1.578610 -4.513509 18.005134 4.658421 -83.426262 -6.727254 -1.129212 -6.102909 -2.121823 4.817713 1.419857 -4.350400 -5.762672 -4.723297 6.842706 12.147423 2.987106 0.374011 -3.361057 -0.039050 0.045648 -0.284248 0.171537 -2.472841 8.894939 3.292552 -9.718892 19.318472 0.525480 -6.883860 -8.860945 -8.361724 0.021722 -9.665454 2.926669
